<?xml version="1.0" encoding="UTF-8" standalone="no"?>
<!DOCTYPE svg PUBLIC "-//W3C//DTD SVG 20010904//EN"
              "http://www.w3.org/TR/2001/REC-SVG-20010904/DTD/svg10.dtd">

<svg xmlns="http://www.w3.org/2000/svg"
     width="705.467mm" height="705.467mm"
     viewBox="0 0 2000 960">
  <path id="Selection"
        fill="#777" stroke="black" stroke-width="1"
        d="M 560.00,523.00
           C 551.35,522.70 546.30,516.29 540.00,510.87
             540.00,510.87 508.00,483.42 508.00,483.42
             505.54,481.33 496.26,472.92 494.00,472.16
             489.38,470.62 484.36,478.00 481.72,481.00
             481.72,481.00 454.91,509.00 454.91,509.00
             451.62,512.53 444.92,516.80 448.37,522.00
             448.37,522.00 465.00,539.00 465.00,539.00
             465.00,539.00 498.00,572.00 498.00,572.00
             498.00,572.00 604.00,678.00 604.00,678.00
             604.00,678.00 649.00,634.00 649.00,634.00
             649.00,634.00 661.00,622.99 661.00,622.99
             661.00,622.99 712.00,572.01 712.00,572.01
             712.00,572.01 726.00,559.00 726.00,559.00
             726.00,559.00 754.00,531.00 754.00,531.00
             756.26,528.74 763.80,522.10 763.80,519.09
             763.80,516.16 754.41,508.67 752.00,506.58
             752.00,506.58 727.00,483.97 727.00,483.97
             724.67,481.76 715.40,472.98 713.00,472.17
             708.38,470.59 699.17,481.76 696.01,485.00
             696.01,485.00 671.00,511.00 671.00,511.00
             663.43,518.57 661.99,522.96 651.00,523.00
             651.00,523.00 651.00,212.00 651.00,212.00
             651.01,203.01 652.95,194.16 656.78,186.00
             660.05,179.03 662.99,173.81 668.17,168.00
             674.65,160.75 682.27,154.34 691.00,149.97
             708.65,141.15 725.99,142.00 745.00,142.00
             745.00,142.00 774.00,142.00 774.00,142.00
             785.77,142.06 800.54,144.83 811.00,150.32
             816.73,153.33 821.16,156.55 825.96,160.87
             853.98,186.05 851.00,212.04 851.00,246.00
             851.00,246.00 956.00,246.00 956.00,246.00
             956.00,246.00 956.00,201.00 956.00,201.00
             955.98,187.65 952.28,172.46 947.58,160.00
             943.37,148.87 937.38,138.41 930.11,129.00
             912.50,106.20 886.39,89.25 858.00,83.45
             841.99,80.18 829.10,81.00 813.00,81.00
             813.00,81.00 751.00,81.00 751.00,81.00
             751.00,81.00 679.00,81.00 679.00,81.00
             667.59,81.02 655.79,83.74 645.00,87.33
             593.43,104.52 560.08,153.07 560.00,207.00
             560.00,207.00 560.00,523.00 560.00,523.00 Z
           M 743.00,443.00
           C 743.00,443.00 779.00,475.08 779.00,475.08
             781.46,477.35 792.87,488.10 795.00,488.83
             799.65,490.44 808.79,479.21 812.00,476.00
             812.00,476.00 838.00,450.00 838.00,450.00
             845.57,442.43 847.01,438.04 858.00,438.00
             858.00,438.00 858.00,743.00 858.00,743.00
             857.94,778.81 836.36,808.58 801.00,817.10
             788.79,820.04 766.35,819.00 753.00,819.00
             728.91,819.00 711.22,820.81 690.00,806.48
             670.91,793.59 658.04,771.16 658.00,748.00
             658.00,748.00 658.00,716.00 658.00,716.00
             658.00,716.00 552.00,716.00 552.00,716.00
             552.00,716.00 552.00,757.00 552.00,757.00
             552.06,769.46 555.65,788.40 560.20,800.00
             565.02,812.25 570.15,821.51 578.13,832.00
             583.28,838.77 591.42,847.13 598.00,852.54
             615.09,866.58 638.99,877.00 661.00,879.71
             661.00,879.71 706.00,881.00 706.00,881.00
             706.00,881.00 762.00,881.00 762.00,881.00
             787.33,881.00 829.83,882.90 853.00,877.11
             898.36,865.77 933.08,831.44 944.37,786.00
             946.38,777.93 947.99,768.30 948.00,760.00
             948.00,760.00 948.00,438.00 948.00,438.00
             956.65,438.30 961.70,444.71 968.00,450.13
             968.00,450.13 1000.00,477.58 1000.00,477.58
             1002.46,479.67 1011.74,488.08 1014.00,488.84
             1018.48,490.33 1025.08,481.92 1028.00,479.00
             1028.00,479.00 1063.00,443.00 1063.00,443.00
             1058.47,436.67 1052.40,431.61 1047.04,426.00
             1047.04,426.00 1013.00,391.00 1013.00,391.00
             1013.00,391.00 969.00,347.00 969.00,347.00
             969.00,347.00 942.00,320.58 942.00,320.58
             942.00,320.58 915.00,294.00 915.00,294.00
             912.79,291.79 907.07,285.20 904.00,285.20
             900.93,285.20 895.21,291.79 893.00,294.00
             893.00,294.00 864.00,322.00 864.00,322.00
             864.00,322.00 779.00,406.00 779.00,406.00
             779.00,406.00 758.00,426.83 758.00,426.83
             752.58,431.73 746.18,436.26 743.00,443.00 Z
           M 1486.00,457.00
           C 1486.00,457.00 1527.00,510.00 1527.00,510.00
             1527.00,510.00 1600.21,603.00 1600.21,603.00
             1600.21,603.00 1630.20,641.00 1630.20,641.00
             1632.42,643.79 1641.18,654.13 1641.33,657.00
             1641.50,660.31 1632.51,670.09 1630.08,673.00
             1630.08,673.00 1597.08,713.00 1597.08,713.00
             1597.08,713.00 1513.75,814.00 1513.75,814.00
             1513.75,814.00 1486.41,847.00 1486.41,847.00
             1481.86,852.47 1474.18,861.04 1471.00,867.00
             1471.00,867.00 1565.00,867.00 1565.00,867.00
             1574.98,867.00 1604.18,866.10 1612.00,868.00
             1612.00,868.00 1636.58,832.00 1636.58,832.00
             1636.58,832.00 1678.72,771.00 1678.72,771.00
             1678.72,771.00 1708.00,728.00 1708.00,728.00
             1708.00,728.00 1756.42,796.00 1756.42,796.00
             1756.42,796.00 1807.00,868.00 1807.00,868.00
             1814.69,866.13 1841.38,867.00 1851.00,867.00
             1851.00,867.00 1939.00,867.00 1939.00,867.00
             1935.59,860.55 1927.15,850.93 1922.25,845.00
             1922.25,845.00 1898.20,815.00 1898.20,815.00
             1898.20,815.00 1814.00,710.00 1814.00,710.00
             1814.00,710.00 1781.80,670.00 1781.80,670.00
             1779.48,667.11 1771.43,658.36 1771.72,655.00
             1771.98,651.94 1780.29,642.79 1782.58,640.00
             1782.58,640.00 1811.80,604.00 1811.80,604.00
             1811.80,604.00 1893.80,503.00 1893.80,503.00
             1893.80,503.00 1917.39,474.00 1917.39,474.00
             1921.23,469.28 1927.56,462.25 1930.00,457.00
             1930.00,457.00 1808.00,457.00 1808.00,457.00
             1808.00,457.00 1800.17,458.02 1800.17,458.02
             1800.17,458.02 1791.98,468.00 1791.98,468.00
             1791.98,468.00 1777.86,488.00 1777.86,488.00
             1777.86,488.00 1735.58,548.00 1735.58,548.00
             1735.58,548.00 1707.00,589.00 1707.00,589.00
             1707.00,589.00 1683.67,555.00 1683.67,555.00
             1683.67,555.00 1640.00,489.00 1640.00,489.00
             1640.00,489.00 1626.00,468.00 1626.00,468.00
             1626.00,468.00 1618.48,457.99 1618.48,457.99
             1618.48,457.99 1611.00,457.00 1611.00,457.00
             1611.00,457.00 1486.00,457.00 1486.00,457.00 Z
           M 64.00,868.00
           C 64.00,868.00 173.00,868.00 173.00,868.00
             175.06,868.00 178.62,868.26 180.30,867.01
             182.20,865.60 187.69,851.16 188.99,848.00
             188.99,848.00 209.40,798.00 209.40,798.00
             211.24,793.41 214.47,782.49 219.10,780.60
             220.86,779.88 224.06,780.00 226.00,780.00
             226.00,780.00 394.00,780.00 394.00,780.00
             405.04,780.02 403.70,781.70 410.01,797.00
             410.01,797.00 430.99,848.00 430.99,848.00
             432.45,851.55 437.23,865.28 439.65,867.01
             441.39,868.25 444.90,868.00 447.00,868.00
             447.00,868.00 556.00,868.00 556.00,868.00
             556.00,868.00 544.86,842.00 544.86,842.00
             544.86,842.00 518.86,784.00 518.86,784.00
             518.86,784.00 463.86,661.00 463.86,661.00
             463.86,661.00 423.69,571.00 423.69,571.00
             423.69,571.00 393.69,504.00 393.69,504.00
             393.69,504.00 374.00,459.00 374.00,459.00
             374.00,459.00 254.00,459.00 254.00,459.00
             254.00,459.00 246.49,460.02 246.49,460.02
             246.49,460.02 236.14,481.00 236.14,481.00
             236.14,481.00 203.42,554.00 203.42,554.00
             203.42,554.00 107.14,770.00 107.14,770.00
             107.14,770.00 81.69,827.00 81.69,827.00
             81.69,827.00 64.00,868.00 64.00,868.00 Z
           M 956.00,868.00
           C 956.00,868.00 1065.00,868.00 1065.00,868.00
             1067.18,868.00 1070.68,868.23 1072.51,866.98
             1075.20,865.13 1079.92,851.70 1081.40,848.00
             1081.40,848.00 1102.28,797.00 1102.28,797.00
             1103.84,793.37 1107.29,782.87 1110.27,781.02
             1112.26,779.79 1115.70,780.00 1118.00,780.00
             1118.00,780.00 1287.00,780.00 1287.00,780.00
             1289.26,780.00 1292.68,779.78 1294.61,781.02
             1297.58,782.94 1300.90,793.36 1302.42,797.00
             1302.42,797.00 1323.40,848.00 1323.40,848.00
             1324.91,851.78 1329.57,865.10 1332.41,866.98
             1334.30,868.22 1337.78,868.00 1340.00,868.00
             1340.00,868.00 1449.00,868.00 1449.00,868.00
             1449.00,868.00 1403.31,766.00 1403.31,766.00
             1403.31,766.00 1367.69,686.00 1367.69,686.00
             1367.69,686.00 1308.86,555.00 1308.86,555.00
             1308.86,555.00 1275.78,481.00 1275.78,481.00
             1275.78,481.00 1265.37,459.99 1265.37,459.99
             1265.37,459.99 1258.00,459.00 1258.00,459.00
             1258.00,459.00 1146.00,459.00 1146.00,459.00
             1146.00,459.00 1138.70,459.99 1138.70,459.99
             1138.70,459.99 1135.23,466.00 1135.23,466.00
             1135.23,466.00 1128.14,482.00 1128.14,482.00
             1128.14,482.00 1095.00,556.00 1095.00,556.00
             1095.00,556.00 1070.86,610.00 1070.86,610.00
             1070.86,610.00 995.14,780.00 995.14,780.00
             995.14,780.00 969.69,837.00 969.69,837.00
             969.69,837.00 956.00,868.00 956.00,868.00 Z
           M 311.00,551.00
           C 311.00,551.00 324.00,583.00 324.00,583.00
             324.00,583.00 348.60,645.00 348.60,645.00
             348.60,645.00 375.00,712.00 375.00,712.00
             375.00,712.00 332.00,713.00 332.00,713.00
             332.00,713.00 247.00,713.00 247.00,713.00
             247.00,713.00 261.60,674.00 261.60,674.00
             261.60,674.00 288.00,607.00 288.00,607.00
             288.00,607.00 302.60,570.00 302.60,570.00
             302.60,570.00 311.00,551.00 311.00,551.00 Z
           M 1204.00,551.00
           C 1204.00,551.00 1214.58,578.00 1214.58,578.00
             1214.58,578.00 1248.00,662.00 1248.00,662.00
             1248.00,662.00 1259.80,692.00 1259.80,692.00
             1259.80,692.00 1267.00,712.00 1267.00,712.00
             1267.00,712.00 1224.00,713.00 1224.00,713.00
             1224.00,713.00 1139.00,713.00 1139.00,713.00
             1139.00,713.00 1155.60,670.00 1155.60,670.00
             1155.60,670.00 1183.60,599.00 1183.60,599.00
             1183.60,599.00 1195.58,569.00 1195.58,569.00
             1197.77,563.22 1199.74,555.46 1204.00,551.00 Z" />
</svg>
