<?xml version="1.0" encoding="UTF-8" standalone="no"?>
<!DOCTYPE svg PUBLIC "-//W3C//DTD SVG 20010904//EN"
              "http://www.w3.org/TR/2001/REC-SVG-20010904/DTD/svg10.dtd">

<svg xmlns="http://www.w3.org/2000/svg"
     width="172.735mm" height="172.735mm"
     viewBox="0 0 612 612">
  <path id="Selection"
        fill="#777" stroke="black" stroke-width="1"
        d="M 88.00,0.11
           C 74.67,2.61 63.92,5.76 52.00,12.31
             22.85,28.32 0.05,62.18 0.00,96.00
             0.00,96.00 0.00,516.00 0.00,516.00
             0.08,565.28 46.72,611.92 96.00,612.00
             96.00,612.00 516.00,612.00 516.00,612.00
             565.30,611.92 611.92,565.30 612.00,516.00
             612.00,516.00 612.00,96.00 612.00,96.00
             611.92,46.67 565.34,0.08 516.00,0.11
             516.00,0.11 231.00,0.11 231.00,0.11
             231.00,0.11 137.00,0.11 137.00,0.11
             137.00,0.11 88.00,0.11 88.00,0.11 Z
           M 394.00,299.00
           C 427.41,303.71 450.07,328.04 457.87,360.00
             459.34,366.02 460.92,374.86 461.00,381.00
             461.23,400.57 460.77,416.91 451.73,435.00
             445.39,447.68 434.74,458.82 423.00,466.65
             403.58,479.60 372.38,488.72 349.00,489.00
             349.00,489.00 330.00,490.00 330.00,490.00
             330.00,490.00 167.00,490.00 167.00,490.00
             167.00,490.00 167.00,133.00 167.00,133.00
             167.00,133.00 226.00,133.00 226.00,133.00
             226.00,133.00 269.00,133.00 269.00,133.00
             269.00,133.00 301.00,133.00 301.00,133.00
             335.89,133.00 370.88,130.66 403.00,146.75
             415.35,152.94 423.81,159.60 431.79,171.00
             436.07,177.11 438.73,182.91 440.97,190.00
             443.53,198.07 444.99,206.53 445.00,215.00
             445.00,215.00 445.00,227.00 445.00,227.00
             444.97,249.14 434.20,270.41 417.00,284.19
             417.00,284.19 394.00,299.00 394.00,299.00 Z
           M 228.00,283.00
           C 228.00,283.00 330.00,283.00 330.00,283.00
             346.43,282.97 362.84,278.07 373.67,265.00
             388.52,247.08 387.82,206.99 368.00,192.79
             357.77,185.45 346.94,184.73 335.00,183.91
             335.00,183.91 325.00,183.00 325.00,183.00
             325.00,183.00 237.00,183.00 237.00,183.00
             235.01,183.00 231.19,182.77 229.60,184.02
             227.90,185.37 228.04,188.05 228.00,190.00
             228.00,190.00 228.00,207.00 228.00,207.00
             228.00,207.00 228.00,283.00 228.00,283.00 Z
           M 228.00,327.00
           C 228.00,327.00 228.00,439.00 228.00,439.00
             228.00,439.00 345.00,439.00 345.00,439.00
             359.21,438.98 375.93,433.53 385.83,422.96
             405.95,401.48 404.98,355.70 380.00,338.04
             362.16,325.44 342.61,327.00 322.00,327.00
             322.00,327.00 228.00,327.00 228.00,327.00 Z" />
  <path id="Unnamed"
        fill="none" stroke="black" stroke-width="1"
        d="M -112.00,145.00" />
</svg>
