<?xml version="1.0" encoding="UTF-8" standalone="no"?>
<!DOCTYPE svg PUBLIC "-//W3C//DTD SVG 20010904//EN"
              "http://www.w3.org/TR/2001/REC-SVG-20010904/DTD/svg10.dtd">

<svg xmlns="http://www.w3.org/2000/svg"
     width="141.093mm" height="141.093mm"
     viewBox="0 0 400 400">
  <path id="Selection"
        fill="#777" stroke="black" stroke-width="1"
        d="M 232.00,33.00
           C 225.83,42.86 220.38,47.63 216.06,59.00
             205.31,87.34 213.68,116.34 234.09,138.00
             247.48,152.22 269.01,164.97 289.00,165.00
             289.00,165.00 308.00,165.00 308.00,165.00
             326.02,164.91 344.92,153.40 355.28,138.99
             358.81,134.07 362.20,128.81 364.00,123.00
             358.73,125.56 354.08,132.02 348.00,136.23
             337.70,143.36 326.25,145.14 314.00,145.00
             270.28,144.48 231.33,109.64 227.17,66.00
             225.81,51.76 232.41,43.13 234.00,33.00
             234.00,33.00 232.00,33.00 232.00,33.00 Z
           M 160.00,49.00
           C 152.58,63.49 139.49,74.25 132.09,95.00
             129.68,101.76 127.09,111.86 127.00,119.00
             127.00,119.00 127.00,140.00 127.00,140.00
             127.04,162.82 141.36,192.52 155.65,209.91
             159.80,214.96 170.85,225.35 176.00,229.54
             190.05,240.96 209.41,251.65 227.00,256.24
             233.49,257.93 250.18,259.99 257.00,260.00
             291.63,260.05 320.19,253.91 346.28,229.39
             356.19,220.08 370.86,200.66 373.00,187.00
             368.22,189.37 365.74,193.22 362.00,197.00
             354.92,204.16 354.14,204.83 346.00,210.58
             326.17,224.58 304.70,228.27 281.00,228.00
             267.31,227.84 253.77,224.40 241.00,219.68
             201.24,204.99 163.99,168.86 153.51,127.00
             150.77,116.05 149.87,106.23 150.00,95.00
             150.12,84.66 153.80,70.49 157.87,61.00
             159.89,56.30 161.52,54.20 163.00,49.00
             163.00,49.00 160.00,49.00 160.00,49.00 Z
           M 72.00,81.00
           C 52.15,105.27 37.91,120.76 30.11,152.00
             28.01,160.37 27.01,163.08 27.00,172.00
             27.00,172.00 27.00,200.00 27.00,200.00
             27.19,215.81 36.11,242.53 42.84,257.00
             64.60,303.86 106.51,340.64 155.00,357.86
             161.90,360.31 168.78,362.81 176.00,364.20
             176.00,364.20 187.00,365.28 187.00,365.28
             187.00,365.28 203.00,367.00 203.00,367.00
             219.41,367.19 235.79,367.26 252.00,364.39
             285.48,358.45 317.14,340.18 339.50,314.72
             345.84,307.49 355.84,293.54 360.14,285.00
             362.51,280.28 364.68,277.38 364.00,272.00
             364.00,272.00 343.91,292.11 343.91,292.11
             329.62,303.62 308.94,314.23 291.00,318.48
             291.00,318.48 282.00,320.00 282.00,320.00
             273.41,321.74 270.14,322.99 261.00,323.00
             236.33,323.04 236.74,324.09 212.00,319.46
             212.00,319.46 204.00,318.08 204.00,318.08
             141.28,301.75 83.22,250.26 65.59,187.00
             61.56,172.52 60.99,166.73 59.91,152.00
             59.91,152.00 59.08,144.00 59.08,144.00
             59.08,144.00 60.72,127.00 60.72,127.00
             60.72,127.00 61.67,118.00 61.67,118.00
             65.27,101.01 72.23,88.52 74.00,81.00
             74.00,81.00 72.00,81.00 72.00,81.00 Z" />
</svg>
