<?xml version="1.0" encoding="UTF-8" standalone="no"?>
<!DOCTYPE svg PUBLIC "-//W3C//DTD SVG 20010904//EN"
              "http://www.w3.org/TR/2001/REC-SVG-20010904/DTD/svg10.dtd">

<svg xmlns="http://www.w3.org/2000/svg"
     width="144.51mm" height="144.51mm"
     viewBox="0 0 512 512">
  <path id="Selection"
        fill="#777" stroke="black" stroke-width="1"
        d="M 146.00,335.00
           C 154.50,349.94 161.99,365.01 172.15,379.00
             182.14,392.76 201.82,415.69 216.00,424.44
             228.02,431.85 237.82,421.35 234.26,412.00
             232.33,406.92 226.03,403.15 222.00,399.70
             222.00,399.70 203.29,381.00 203.29,381.00
             185.50,360.56 173.04,337.15 161.24,313.00
             161.24,313.00 151.19,289.00 151.19,289.00
             149.43,284.38 148.09,279.71 143.00,277.74
             141.50,277.16 139.59,277.01 138.00,277.12
             124.76,278.02 127.11,293.62 127.00,303.00
             126.90,311.25 123.90,330.79 121.87,339.00
             121.05,342.30 119.44,349.14 115.79,350.30
             112.34,351.39 107.55,347.52 105.17,345.38
             97.85,338.79 92.73,328.41 90.15,319.00
             84.17,297.17 84.32,265.66 91.02,244.00
             94.54,232.64 97.83,226.53 102.42,216.00
             104.74,210.68 107.98,206.10 106.61,200.00
             105.41,194.68 99.50,189.57 96.16,185.00
             91.22,178.24 85.31,166.75 81.86,159.00
             75.67,145.09 69.98,130.76 66.15,116.00
             64.08,108.00 65.17,102.91 61.55,94.00
             57.96,85.19 48.15,72.01 42.42,64.00
             37.76,57.47 26.11,41.58 23.36,35.00
             21.43,30.38 20.99,23.88 27.02,22.31
             33.38,20.66 42.37,24.99 48.00,27.76
             48.00,27.76 77.00,44.05 77.00,44.05
             81.80,47.09 88.64,52.57 94.00,53.67
             94.00,53.67 113.00,56.42 113.00,56.42
             132.84,60.00 152.45,65.49 171.00,73.43
             233.36,100.10 278.30,148.98 311.57,207.00
             325.25,230.85 336.41,255.98 347.70,281.00
             350.97,288.27 360.23,311.12 364.39,315.90
             368.29,320.39 375.50,322.20 381.00,324.40
             381.00,324.40 409.00,337.31 409.00,337.31
             424.73,345.81 440.01,355.66 454.00,366.80
             454.00,366.80 480.00,388.00 480.00,388.00
             474.55,391.13 466.21,392.82 460.00,394.37
             460.00,394.37 426.00,402.58 426.00,402.58
             418.69,404.18 407.79,404.26 405.43,413.00
             403.21,421.26 411.40,435.62 416.24,442.00
             431.85,462.61 455.00,475.86 475.00,491.66
             475.00,491.66 486.83,502.04 486.83,502.04
             491.92,507.42 494.50,512.72 503.00,511.89
             510.61,511.15 513.51,503.77 511.49,497.00
             509.55,490.50 498.28,480.68 493.00,476.28
             493.00,476.28 473.00,461.15 473.00,461.15
             458.06,450.25 442.52,439.56 432.00,424.00
             442.71,423.10 482.60,411.96 495.00,408.42
             503.18,406.09 512.42,404.65 511.95,394.00
             511.52,383.94 494.22,370.48 487.00,363.93
             463.67,342.75 443.27,329.95 416.00,314.86
             416.00,314.86 393.00,304.42 393.00,304.42
             389.53,302.97 384.07,301.45 381.63,298.73
             379.29,296.11 375.71,287.54 374.14,284.00
             374.14,284.00 362.22,257.00 362.22,257.00
             347.68,226.00 335.17,199.96 316.31,171.00
             280.94,116.72 231.08,71.46 170.00,48.42
             155.51,42.96 139.19,38.49 124.00,35.45
             124.00,35.45 102.00,31.67 102.00,31.67
             97.87,30.37 89.17,24.37 85.00,21.81
             72.04,13.87 49.25,0.19 34.00,0.00
             19.12,-0.18 5.76,1.01 1.16,18.00
             0.20,21.54 0.05,23.37 0.00,27.00
             0.00,27.00 0.00,33.00 0.00,33.00
             0.12,42.88 5.36,50.99 10.67,59.00
             10.67,59.00 37.55,98.00 37.55,98.00
             43.35,107.75 42.17,112.50 44.65,123.00
             47.15,133.56 50.89,143.90 54.81,154.00
             59.22,165.34 64.93,177.38 70.86,188.00
             70.86,188.00 80.65,204.00 80.65,204.00
             81.60,207.13 79.41,211.13 78.14,214.00
             74.85,221.46 72.30,227.07 70.00,235.00
             63.05,258.94 63.96,273.79 64.00,298.00
             64.03,318.31 71.92,345.07 86.17,359.91
             97.00,371.20 118.74,380.51 131.96,367.90
             140.50,359.75 143.88,346.24 146.00,335.00 Z
           M 104.00,74.57
           C 92.81,78.96 94.79,90.50 100.11,94.27
             103.97,97.00 109.19,95.73 113.44,100.34
             117.23,104.44 116.40,108.70 118.17,111.96
             120.58,116.39 126.14,118.81 131.00,117.35
             141.30,114.24 139.99,101.95 136.88,94.00
             132.02,81.55 117.37,72.27 104.00,74.57 Z" />
</svg>
